<?xml version="1.0" standalone="no"?>
<!DOCTYPE svg PUBLIC "-//W3C//DTD SVG 20010904//EN"
 "http://www.w3.org/TR/2001/REC-SVG-20010904/DTD/svg10.dtd">
<svg version="1.0" xmlns="http://www.w3.org/2000/svg"
 width="482.000000pt" height="482.000000pt" viewBox="0 0 482.000000 482.000000"
 preserveAspectRatio="xMidYMid meet">
<metadata>
Created by potrace 1.11, written by Peter Selinger 2001-2013
</metadata>
<g transform="translate(0.000000,482.000000) scale(0.100000,-0.100000)"
fill="#000000" stroke="none">
<path d="M4249 4489 c-9 -13 -38 -45 -65 -72 -43 -42 -67 -57 -159 -98 -11 -5
-75 -22 -142 -38 -67 -16 -144 -40 -170 -52 -43 -19 -66 -22 -208 -23 -168 -2
-230 -11 -385 -56 -138 -41 -195 -69 -306 -153 -85 -64 -271 -248 -298 -294
-33 -58 -245 -73 -278 -20 -6 9 -8 9 -8 0 0 -26 70 -55 149 -60 l78 -6 -39
-86 c-53 -114 -102 -262 -128 -391 -51 -245 -87 -350 -133 -389 -22 -17 -65 3
-78 36 -6 16 -21 66 -34 113 -84 303 -80 294 -172 381 -52 48 -97 78 -184 121
-181 90 -269 116 -434 125 -403 22 -873 -258 -984 -586 -23 -70 -26 -90 -26
-251 0 -111 5 -193 13 -225 11 -43 11 -56 -3 -88 -8 -20 -19 -37 -23 -37 -10
0 -132 -98 -188 -150 -36 -33 -44 -48 -44 -76 l0 -35 60 50 c33 28 70 56 82
62 l21 12 -19 -34 c-11 -19 -48 -94 -82 -166 l-62 -133 0 -935 0 -935 449 0
449 0 6 38 c10 59 26 309 26 402 l0 85 40 33 c21 17 43 32 49 32 20 0 80 61
74 75 -3 9 10 29 32 49 30 29 36 41 34 68 -2 18 2 44 8 58 6 14 15 41 21 60
l9 35 16 -55 c34 -113 59 -294 64 -472 3 -97 2 -185 -3 -195 -10 -23 -11 -30
-13 -78 -1 -30 -4 -36 -11 -25 -7 11 -10 3 -11 -30 0 -34 -2 -40 -9 -25 -7 16
-9 11 -9 -20 -1 -29 2 -36 9 -25 6 10 10 11 10 3 0 -10 144 -13 686 -13 l686
0 -32 27 c-60 50 -85 101 -84 173 0 105 31 154 204 330 82 82 152 150 158 150
5 0 16 -39 25 -87 33 -178 56 -309 62 -358 4 -27 9 -58 12 -68 4 -16 2 -17
-15 -8 -12 6 -23 11 -27 11 -11 0 -65 -61 -65 -74 0 -20 -52 -72 -85 -84 -22
-8 46 -10 270 -9 l300 2 -3 24 c-2 13 -1 39 3 57 l6 34 274 0 c262 0 275 -1
275 -19 0 -10 3 -34 6 -52 5 -27 3 -31 -6 -19 -10 13 -11 12 -6 -3 3 -10 6
-21 6 -23 0 -2 209 -4 465 -4 l465 0 0 819 0 819 -44 36 c-46 37 -62 45 -50
24 4 -8 3 -10 -2 -5 -5 5 -9 14 -9 20 0 14 -226 170 -357 247 -48 29 -92 58
-98 65 -9 10 -7 28 6 69 15 47 25 61 75 98 32 24 60 49 63 56 3 8 -18 -7 -48
-32 -59 -51 -66 -54 -67 -28 0 9 -10 -17 -23 -58 -40 -131 -72 -203 -112 -252
l-39 -47 -205 0 c-183 1 -201 2 -164 14 53 17 83 32 112 58 24 22 27 34 13 56
-7 11 -27 9 -112 -12 -147 -36 -173 -39 -364 -46 -161 -6 -170 -7 -170 -26 0
-16 12 -22 70 -36 l70 -16 -200 -4 c-135 -3 -207 0 -220 7 -39 22 -108 100
-130 149 -24 51 -58 185 -47 185 3 0 14 -8 25 -17 19 -18 20 -17 7 6 -12 24
-50 148 -50 166 0 5 19 -10 43 -33 23 -23 49 -42 56 -42 11 0 11 4 -1 18 -23
25 -64 129 -83 208 -23 98 -22 189 2 242 l20 43 6 -53 c4 -29 7 -109 8 -178 0
-69 5 -134 10 -145 6 -13 8 18 6 90 l-2 110 80 -4 c87 -3 94 -6 77 -23 -7 -7
-12 -22 -12 -35 0 -19 -4 -22 -29 -17 -27 6 -28 4 -23 -22 3 -16 7 -22 9 -14
3 13 23 14 122 11 80 -2 126 1 141 9 13 7 18 15 13 19 -6 3 -18 21 -27 39
l-17 32 50 0 c27 0 56 3 65 6 14 5 16 -4 17 -62 0 -38 4 -78 9 -89 6 -12 9 49
7 163 -1 100 -1 182 1 182 1 0 16 -15 32 -32 25 -28 29 -41 30 -89 0 -31 3
-85 8 -120 7 -63 7 -62 12 51 4 81 2 128 -8 160 -13 45 -28 329 -16 300 21
-47 27 -66 25 -74 -1 -5 2 -12 6 -15 22 -16 31 -55 33 -146 1 -55 5 -156 9
-225 8 -125 8 -125 9 74 2 175 4 197 16 181 8 -11 12 -23 10 -27 -3 -5 -1 -8
3 -8 5 0 17 -14 27 -32 17 -27 18 -45 13 -147 -4 -68 -2 -122 3 -131 7 -10 10
14 10 75 0 50 3 100 6 112 6 21 8 21 31 -14 23 -34 24 -38 10 -79 -18 -54 -4
-57 26 -6 l22 37 6 -60 6 -60 1 65 c1 43 11 91 29 140 l28 75 6 -143 c3 -78 9
-145 12 -149 4 -3 4 70 0 163 -3 94 -3 187 1 207 l7 37 29 -15 30 -16 0 -109
c0 -95 -2 -109 -17 -113 -17 -4 -17 -5 0 -6 25 -2 21 -29 -5 -33 -41 -6 -24
-23 25 -26 52 -3 52 -3 35 -35 -28 -55 -29 -57 -13 -64 9 -3 70 -3 135 -1 104
4 120 3 123 -11 2 -9 5 -5 9 12 4 22 2 27 -13 27 -12 0 -19 7 -19 19 0 10 -7
24 -15 31 -8 7 -15 15 -15 19 0 6 163 31 198 31 8 0 12 -20 12 -65 0 -51 -6
-77 -26 -116 -28 -56 -25 -73 6 -44 19 18 20 17 20 -5 0 -30 7 -23 14 14 3 16
23 48 44 70 22 23 45 50 51 61 11 18 12 18 6 -5 -3 -14 -8 -38 -10 -53 -8 -51
-66 -216 -95 -269 -20 -36 -9 -41 23 -10 18 18 38 32 45 32 7 0 12 5 12 10 0
6 26 41 58 79 31 37 79 106 105 152 l48 84 -6 -65 c-9 -96 -22 -136 -58 -178
-29 -34 -29 -35 -3 -12 15 14 36 41 46 60 l18 35 7 -36 c4 -20 5 -67 3 -103
-3 -65 -3 -65 15 -44 28 37 114 219 133 283 10 33 18 61 19 62 0 1 29 -11 63
-27 34 -17 64 -30 67 -30 11 0 4 62 -9 83 -34 51 -48 140 -50 307 -1 91 -6
178 -11 194 -7 25 -6 28 9 23 10 -4 29 -10 42 -13 l24 -6 0 177 c0 161 -2 181
-20 210 -11 18 -38 88 -60 155 -41 127 -84 220 -126 276 l-25 33 28 17 c49 31
203 155 203 164 0 5 -14 2 -31 -7 -47 -23 -145 -28 -214 -10 -33 9 -120 43
-192 76 -82 37 -154 62 -187 66 l-54 7 37 62 c48 80 93 182 89 203 -2 14 -6
12 -19 -8z m-445 -1097 c22 -36 24 -49 31 -270 7 -224 6 -232 -12 -232 -47 0
-52 16 -56 170 l-3 145 -2 -147 c-2 -142 -3 -146 -23 -141 -19 5 -20 12 -17
77 4 70 50 436 55 436 2 0 14 -17 27 -38z m-627 -357 c11 -33 24 -67 27 -77 6
-12 -3 -23 -31 -42 -21 -14 -42 -26 -47 -26 -11 0 -1 487 11 515 5 13 10 -41
14 -145 5 -126 11 -179 26 -225z m-72 9 c-7 -171 -7 -172 -32 -183 -14 -7 -28
-10 -30 -7 -9 9 9 446 18 446 5 0 16 15 26 33 l18 32 3 -75 c2 -41 1 -152 -3
-246z m796 182 c29 -56 31 -68 37 -198 3 -76 9 -141 14 -144 6 -4 9 37 6 104
-1 61 0 104 5 97 13 -25 69 -179 74 -207 5 -25 3 -26 -28 -22 -19 2 -45 6 -59
9 -14 2 -42 7 -62 10 l-38 6 0 217 c0 151 3 212 11 202 5 -8 24 -42 40 -74z
m-883 -388 c-7 -4 -16 -8 -20 -8 -5 0 -8 74 -8 165 0 134 3 173 18 207 l17 43
3 -199 c2 -153 -1 -201 -10 -208z m1066 225 l36 -57 0 -193 0 -193 -33 0 -33
0 -3 110 c-2 100 -1 110 16 111 17 1 17 2 1 6 -13 3 -18 15 -18 41 0 20 -3 81
-7 135 -3 53 -3 97 0 97 3 0 22 -26 41 -57z m-1114 -98 c0 -122 -2 -145 -15
-145 -12 0 -15 18 -15 106 0 90 14 184 27 184 1 0 3 -65 3 -145z m-620 -209
c-17 -81 -18 -82 -86 -57 -33 12 -65 24 -72 26 -9 3 10 32 56 84 38 44 78 93
88 111 l19 31 3 -71 c2 -40 -2 -95 -8 -124z m1844 94 c12 -33 16 -68 14 -130
l-3 -85 -32 -3 -33 -3 0 163 c0 162 0 163 18 133 10 -16 26 -50 36 -75z m-914
-150 l0 -107 -26 5 c-21 4 -25 9 -21 29 2 13 0 26 -4 29 -5 3 -8 61 -7 129 l2
125 28 -52 c26 -47 28 -60 28 -158z m-380 118 c0 -10 -2 -18 -4 -18 -2 0 -12
-3 -21 -6 -13 -6 -16 0 -14 37 1 24 5 48 8 54 6 11 30 -42 31 -67z m300 45 c0
-10 2 -63 3 -118 l2 -100 -42 -3 -43 -3 0 100 c0 74 3 101 13 101 6 0 23 9 37
20 31 24 29 24 30 3z m-351 -165 c1 -82 0 -88 -19 -88 -18 0 -20 7 -20 85 0
61 3 85 13 85 9 0 9 2 -1 8 -10 7 -10 15 0 43 l12 34 8 -40 c4 -22 7 -79 7
-127z m991 120 c0 -24 3 -73 7 -110 l6 -68 -37 0 -36 0 0 110 0 110 30 0 c29
0 30 -2 30 -42z m110 -88 l0 -120 -29 0 c-16 0 -37 -3 -47 -7 -12 -4 -15 -2
-12 8 2 8 20 17 39 20 l34 6 -37 2 -38 1 0 105 0 105 45 0 45 0 0 -120z m90 0
c0 -60 -4 -110 -9 -110 -5 0 -23 -3 -40 -6 l-31 -6 0 116 0 116 40 0 40 0 0
-110z m-936 69 c8 -44 8 -159 -1 -159 -5 0 -18 -3 -30 -6 -23 -6 -23 -5 -23
89 0 98 0 98 41 106 4 0 9 -13 13 -30z m-73 -56 c1 -38 2 -85 3 -105 1 -33 -2
-38 -21 -38 -22 0 -23 3 -23 99 0 96 3 107 33 110 4 1 8 -29 8 -66z m-60 -43
l2 -95 -27 -3 c-26 -3 -26 -3 -27 65 -1 37 -3 81 -5 97 -2 24 0 27 17 23 10
-3 22 -1 25 5 11 17 13 4 15 -92z m-71 -10 c0 -55 -4 -90 -10 -90 -15 0 -18
14 -23 103 -5 71 -4 77 14 77 17 0 19 -8 19 -90z m1354 -65 c-2 -22 -10 -60
-18 -85 -16 -45 -16 -45 -11 60 3 58 5 114 6 125 1 12 6 3 14 -20 6 -22 11
-58 9 -80z m-1884 54 c0 -11 -4 -18 -10 -14 -5 3 -7 12 -3 20 7 21 13 19 13
-6z m-819 -95 l116 -7 6 -201 c8 -287 22 -312 30 -56 9 270 8 268 61 274 104
14 111 13 114 -15 2 -21 -3 -29 -27 -38 -16 -7 -38 -22 -48 -33 -18 -21 -18
-21 12 -6 71 36 72 36 89 -41 9 -39 16 -72 16 -74 0 -3 -16 -5 -35 -5 -36 0
-88 -27 -120 -62 -10 -11 -13 -20 -7 -20 6 0 14 5 18 11 3 6 27 20 51 31 60
26 98 12 112 -41 28 -106 33 -135 28 -167 -5 -30 -4 -34 8 -24 13 11 15 6 15
-31 0 -23 -7 -70 -15 -103 -8 -34 -26 -131 -40 -216 -15 -85 -35 -173 -45
-195 -10 -22 -25 -56 -34 -75 -37 -81 -78 -111 -263 -189 -136 -58 -200 -70
-270 -51 -96 26 -305 110 -363 145 l-60 36 0 116 0 115 70 111 c38 62 85 147
102 190 l33 79 42 -5 c39 -4 42 -3 32 15 -6 10 -8 36 -6 56 l3 37 9 -33 c7
-30 11 -33 34 -27 14 4 28 11 29 16 8 22 20 -4 13 -29 -5 -19 -16 -29 -37 -33
l-29 -7 32 -1 c36 -1 47 12 59 74 7 37 6 39 -10 26 -11 -9 -20 -11 -27 -4 -13
13 0 45 17 39 20 -8 17 7 -8 39 -18 23 -27 26 -55 22 -18 -3 -33 -3 -33 0 0 7
43 167 46 171 5 7 70 -31 96 -56 30 -28 46 -25 29 6 -10 20 -64 69 -95 87 -15
9 -16 17 -4 83 14 86 27 91 88 36 22 -20 43 -35 46 -32 6 7 -42 57 -81 85
l-30 22 85 -19 c47 -11 137 -23 201 -26z m1659 31 c0 -11 -12 -15 -45 -15 -72
0 -53 24 23 29 13 0 22 -5 22 -14z m638 -2 c2 -9 -7 -13 -27 -13 -21 0 -31 5
-31 16 0 19 51 16 58 -3z m-738 -9 c0 -11 -8 -14 -27 -12 -39 4 -42 28 -4 28
21 0 31 -5 31 -16z m-70 -58 c0 -15 -21 -26 -47 -26 -14 0 -14 3 2 20 21 23
45 26 45 6z m838 -7 c2 -11 -6 -19 -24 -23 -34 -9 -39 -3 -22 23 15 24 41 24
46 0z m-1357 -66 c67 -112 116 -180 171 -238 58 -63 61 -84 7 -47 -15 9 -51
33 -81 53 -31 21 -64 50 -76 66 -30 42 -63 149 -56 178 3 14 8 25 9 25 2 0 14
-17 26 -37z m-165 -80 c-4 -31 -9 -67 -12 -80 -12 -45 16 -22 70 59 45 66 56
78 62 62 19 -57 38 -103 56 -132 19 -31 129 -113 193 -143 26 -12 32 -23 44
-81 18 -86 10 -99 -95 -153 -88 -44 -144 -81 -189 -121 -16 -14 -46 -33 -65
-41 -19 -8 -75 -35 -123 -59 -49 -24 -93 -42 -98 -39 -5 4 -9 21 -9 38 -1 18
-10 73 -22 122 -23 103 -23 88 -13 387 l8 227 56 4 c31 2 76 4 100 5 l44 2 -7
-57z m-1949 -230 c-4 -38 -7 -121 -7 -186 0 -135 -6 -141 -54 -56 -29 50 -31
61 -31 154 0 120 15 155 67 155 l31 0 -6 -67z m731 -111 c-18 -8 -25 4 -15 28
l10 25 6 -25 c4 -14 4 -26 -1 -28z m2728 -115 c2 -15 -7 -21 -28 -18 -4 0 -5
-5 -3 -12 7 -15 -92 -54 -171 -67 -100 -17 -304 -10 -304 10 0 8 61 36 71 33
15 -5 198 19 250 33 70 17 82 18 73 2 -4 -7 -4 -10 0 -6 4 3 8 10 8 15 0 8 75
32 92 29 5 -1 10 -10 12 -19z m-1696 -283 c0 -22 -8 -36 -31 -53 l-31 -23 6
38 c3 22 8 77 12 124 l7 85 18 -70 c10 -38 19 -84 19 -101z m-1140 -311 c36
-17 82 -35 102 -42 21 -7 40 -16 42 -20 3 -4 -33 -22 -80 -40 -78 -30 -134
-68 -134 -92 0 -5 15 4 33 20 51 49 61 42 54 -37 -9 -90 -35 -165 -87 -252
-23 -39 -44 -69 -45 -68 -1 2 -6 140 -10 307 l-7 303 34 -25 c18 -13 62 -38
98 -54z m47 -160 c-3 -10 -5 -4 -5 12 0 17 2 24 5 18 2 -7 2 -21 0 -30z m11
-45 c8 -14 10 -44 6 -78 -3 -30 -7 -66 -8 -80 -1 -14 -8 -36 -15 -49 -7 -13
-10 -36 -7 -55 5 -25 2 -37 -14 -51 -11 -10 -22 -33 -26 -52 -3 -18 -14 -38
-24 -43 -10 -6 -22 -19 -25 -30 -4 -13 -15 -20 -31 -20 -23 0 -24 3 -24 58 0
48 5 63 28 92 49 60 94 168 106 253 5 42 13 77 16 77 4 0 12 -10 18 -22z
m3353 -168 c12 -36 26 -71 32 -77 15 -20 1 -15 -43 12 -38 24 -40 28 -40 74 0
103 15 100 51 -9z m-31 -65 c25 -17 58 -37 74 -45 53 -27 116 -132 116 -192 0
-16 4 -27 10 -23 17 10 32 -78 28 -160 -6 -102 -39 -177 -106 -244 -39 -39
-58 -51 -93 -56 -82 -12 -169 9 -272 64 -52 29 -101 58 -107 66 -26 31 -2 32
60 3 87 -40 158 -55 201 -41 33 11 32 11 -24 12 -59 1 -159 36 -252 87 -48 26
-85 76 -85 117 0 25 3 28 23 24 42 -11 169 -29 173 -25 2 3 -33 13 -78 22
-155 33 -192 63 -154 121 26 39 48 45 193 54 130 8 142 7 213 -15 41 -13 75
-22 77 -20 3 3 -89 41 -125 51 -13 4 -47 21 -74 38 -49 30 -56 32 -145 31 -93
-2 -106 3 -78 26 9 7 13 15 10 18 -3 3 -14 -3 -24 -12 -26 -23 -41 -13 -41 28
0 34 31 73 49 62 5 -3 11 0 13 6 7 20 131 36 258 35 110 -2 117 -3 160 -32z
m-1382 -786 c51 2 53 -7 9 -37 -37 -25 -58 -27 -90 -10 -12 6 -35 14 -52 18
l-30 6 27 27 c27 27 28 27 60 11 19 -10 51 -16 76 -15z m-1771 -91 c-3 -7 -5
-2 -5 12 0 14 2 19 5 13 2 -7 2 -19 0 -25z"/>
<path d="M3240 2811 c0 -6 4 -13 10 -16 6 -3 7 1 4 9 -7 18 -14 21 -14 7z"/>
<path d="M1791 2154 c-27 -34 -35 -66 -28 -109 4 -26 2 -35 -11 -38 -9 -3 12
-5 48 -5 36 0 74 3 85 8 11 5 15 9 8 9 -8 1 -10 17 -7 54 6 64 -11 101 -48
105 -18 2 -32 -5 -47 -24z m89 -49 c0 -16 -6 -25 -15 -25 -9 0 -15 9 -15 25 0
16 6 25 15 25 9 0 15 -9 15 -25z m-10 -56 c0 -3 -6 -13 -13 -23 -18 -25 -71
-18 -75 9 -2 17 3 20 43 20 25 0 45 -3 45 -6z"/>
<path d="M1702 2080 c0 -14 2 -19 5 -12 2 6 2 18 0 25 -3 6 -5 1 -5 -13z"/>
<path d="M1722 1990 c0 -14 2 -19 5 -12 2 6 2 18 0 25 -3 6 -5 1 -5 -13z"/>
<path d="M1731 1944 c0 -11 3 -14 6 -6 3 7 2 16 -1 19 -3 4 -6 -2 -5 -13z"/>
<path d="M1741 1904 c0 -11 3 -14 6 -6 3 7 2 16 -1 19 -3 4 -6 -2 -5 -13z"/>
<path d="M1751 1870 c0 -8 4 -24 9 -35 5 -13 9 -14 9 -5 0 8 -4 24 -9 35 -5
13 -9 14 -9 5z"/>
<path d="M1771 1800 c0 -8 4 -22 9 -30 12 -18 12 -2 0 25 -6 13 -9 15 -9 5z"/>
<path d="M1850 1585 c0 -5 5 -17 10 -25 5 -8 10 -10 10 -5 0 6 -5 17 -10 25
-5 8 -10 11 -10 5z"/>
<path d="M1526 1449 c-14 -11 -26 -25 -26 -32 0 -6 6 -3 13 8 9 11 19 15 27
10 11 -7 9 -10 -6 -16 -15 -6 -13 -8 12 -8 31 -1 64 24 64 47 0 20 -55 14 -84
-9z"/>
<path d="M3738 1893 c6 -2 18 -2 25 0 6 3 1 5 -13 5 -14 0 -19 -2 -12 -5z"/>
<path d="M4595 588 c4 -23 -2 -58 -15 -94 -11 -32 -20 -67 -20 -77 0 -10 -7
-32 -15 -50 l-16 -32 21 24 c11 13 20 35 20 49 0 14 9 53 21 87 17 50 19 68
10 96 l-11 34 5 -37z"/>
<path d="M4248 473 c6 -2 18 -2 25 0 6 3 1 5 -13 5 -14 0 -19 -2 -12 -5z"/>
<path d="M4303 463 c9 -2 23 -2 30 0 6 3 -1 5 -18 5 -16 0 -22 -2 -12 -5z"/>
<path d="M2186 3869 c-19 -22 -26 -41 -25 -67 1 -26 3 -29 6 -12 9 59 15 71
38 82 14 6 25 15 25 20 0 17 -19 7 -44 -23z"/>
<path d="M2170 3751 c0 -6 4 -13 10 -16 6 -3 7 1 4 9 -7 18 -14 21 -14 7z"/>
<path d="M2862 2515 c0 -16 3 -39 8 -50 l9 -20 -1 20 c0 11 -4 34 -8 50 l-8
30 0 -30z"/>
<path d="M4132 2500 c0 -19 2 -27 5 -17 2 9 2 25 0 35 -3 9 -5 1 -5 -18z"/>
<path d="M4282 2446 c-17 -37 -15 -45 4 -18 8 12 14 27 12 33 -2 6 -9 -1 -16
-15z"/>
<path d="M3042 2435 c0 -16 2 -22 5 -12 2 9 2 23 0 30 -3 6 -5 -1 -5 -18z"/>
</g>
</svg>
